<svg width="71" height="71" viewBox="0 0 71 71" fill="none" xmlns="http://www.w3.org/2000/svg">
<path d="M35.5356 0C25.9043 0 24.6966 0.0408589 20.914 0.213374C17.1394 0.385573 14.5615 0.985154 12.3057 1.86167C9.97364 2.76796 7.99594 3.98063 6.02447 5.9521C4.0529 7.92357 2.84022 9.90148 1.93404 12.2335C1.05731 14.4892 0.457944 17.0671 0.285535 20.8418C0.113019 24.6243 0.0722656 25.832 0.0722656 35.4633C0.0722656 45.0944 0.113019 46.3022 0.285535 50.0847C0.457944 53.8594 1.05731 56.4373 1.93404 58.693C2.84033 61.025 4.053 63.0027 6.02447 64.9744C7.99605 66.9458 9.97364 68.1585 12.3057 69.0648C14.5615 69.9413 17.1394 70.5408 20.914 70.7131C24.6966 70.8856 25.9043 70.9265 35.5356 70.9265C45.1667 70.9265 46.3744 70.8856 50.157 70.7131C53.9316 70.5409 56.5095 69.9413 58.7652 69.0648C61.0973 68.1585 63.075 66.9458 65.0466 64.9744C67.0181 63.0027 68.2308 61.025 69.1371 58.693C70.0136 56.4373 70.6132 53.8594 70.7854 50.0847C70.9579 46.3022 70.9987 45.0944 70.9987 35.4633C70.9987 25.832 70.9579 24.6243 70.7854 20.8418C70.6132 17.0671 70.0136 14.4892 69.1371 12.2335C68.2308 9.90148 67.0181 7.92357 65.0466 5.9521C63.075 3.98063 61.0973 2.76796 58.7652 1.86167C56.5095 0.985154 53.9316 0.385573 50.157 0.213374C46.3744 0.0408589 45.1667 0 35.5356 0ZM35.5356 6.38973C45.0045 6.38973 46.1262 6.42594 49.8657 6.59655C53.3234 6.75418 55.2011 7.33191 56.4506 7.81757C58.1061 8.46097 59.2874 9.22937 60.5283 10.4703C61.7694 11.7113 62.5378 12.8927 63.1812 14.548C63.6668 15.7976 64.2446 17.6755 64.4022 21.133C64.5728 24.8725 64.609 25.9942 64.609 35.4632C64.609 44.9323 64.5728 46.0539 64.4022 49.7934C64.2446 53.2511 63.6668 55.1288 63.1812 56.3784C62.5378 58.0338 61.7694 59.2152 60.5283 60.456C59.2874 61.6971 58.106 62.4655 56.4507 63.1089C55.2011 63.5946 53.3233 64.1723 49.8657 64.3299C46.1268 64.5005 45.0053 64.5368 35.5355 64.5368C26.0657 64.5368 24.9444 64.5005 21.2053 64.3298C17.7476 64.1723 15.8699 63.5946 14.6204 63.1089C12.9649 62.4655 11.7836 61.6971 10.5427 60.456C9.30174 59.2152 8.53323 58.0337 7.88984 56.3785C7.40418 55.1288 6.82655 53.251 6.66882 49.7934C6.49821 46.0539 6.46199 44.9323 6.46199 35.4632C6.46199 25.9942 6.49821 24.8725 6.66882 21.133C6.82655 17.6753 7.40418 15.7976 7.88984 14.5481C8.53323 12.8926 9.30174 11.7113 10.5426 10.4704C11.7836 9.22937 12.965 8.46097 14.6203 7.81757C15.8699 7.33191 17.7477 6.75418 21.2053 6.59655C24.9448 6.42594 26.0665 6.38973 35.5355 6.38973" fill="#100F0D"/>
<path d="M35.5352 47.2843C29.0064 47.2843 23.7139 41.9919 23.7139 35.4633C23.7139 28.9346 29.0064 23.6421 35.5352 23.6421C42.0637 23.6421 47.3562 28.9346 47.3562 35.4633C47.3562 41.9919 42.0637 47.2843 35.5352 47.2843ZM35.5352 17.2524C25.4774 17.2524 17.3242 25.4056 17.3242 35.4633C17.3242 45.5209 25.4774 53.6741 35.5352 53.6741C45.5927 53.6741 53.7459 45.5209 53.7459 35.4633C53.7459 25.4056 45.5927 17.2524 35.5352 17.2524ZM58.7211 16.5329C58.7211 18.8833 56.8157 20.7884 54.4654 20.7884C52.1152 20.7884 50.2099 18.8833 50.2099 16.5329C50.2099 14.1826 52.1152 12.2772 54.4654 12.2772C56.8157 12.2772 58.7211 14.1826 58.7211 16.5329Z" fill="#100F0D"/>
</svg>
