<svg width="298" height="42" viewBox="0 0 298 42" fill="none" xmlns="http://www.w3.org/2000/svg">
<path d="M14.2655 12.4771C14.5749 12.174 14.9895 12.0026 15.4226 12C15.6268 12.0028 15.829 12.0462 16.0161 12.128C16.2032 12.2099 16.3725 12.3291 16.5132 12.4771C16.9759 12.9557 17.3558 13.5079 17.637 14.1113L30.5742 39.9193C30.7193 40.1304 30.8013 40.3781 30.8119 40.6341C30.8119 41.0427 30.5054 41.2459 29.8926 41.2459H24.0707C23.6847 41.2789 23.2966 41.2099 22.9469 41.0431C22.6508 40.8382 22.4355 40.5376 22.3351 40.1919L20.9054 37.1945L20.5978 36.7872C20.4419 36.7436 20.2782 36.7436 20.1224 36.7872H10.4186C10.2748 36.7404 10.1202 36.7404 9.97639 36.7872C9.84234 36.8963 9.73599 37.0353 9.66884 37.1945L8.27404 40.1919C8.14933 40.5345 7.92234 40.8312 7.62568 41.0431C7.28572 41.2025 6.91139 41.2713 6.53677 41.2459H0.952586C0.339739 41.2459 0 41.0427 0 40.6341C0.00385185 40.3819 0.0745284 40.1354 0.204482 39.9193L13.1766 14.1113C13.4609 13.5179 13.8271 12.9678 14.2655 12.4771ZM17.908 30.2488C17.9477 30.1505 17.9477 30.0411 17.908 29.9429L15.3893 24.5981L12.904 29.9429C12.8642 30.0411 12.8642 30.1505 12.904 30.2488C12.904 30.453 13.0738 30.5563 13.3462 30.5563H17.7384C17.7724 30.5563 17.908 30.4538 17.908 30.1474V30.2488Z" fill="#3E434C"/>
<path d="M58.7647 36.9571C58.7428 37.1657 58.6741 37.3668 58.5619 37.544C58.4497 37.7211 58.2972 37.8689 58.118 37.9779C56.6351 39.1793 54.9691 40.1338 53.1822 40.804C50.9739 41.6039 48.6234 41.9389 46.2796 41.7865C43.9359 41.6342 41.6495 40.9987 39.5633 39.9196C37.2702 38.7071 35.3598 36.8787 34.0473 34.6413C32.7315 32.3149 32.0391 29.6884 32.0391 27.0156C32.0391 24.3429 32.7315 21.7147 34.0473 19.3883C35.372 17.1107 37.3061 15.2475 39.6315 14.0086C42.1143 12.6909 44.889 12.0239 47.6994 12.0685C49.6415 12.055 51.5707 12.4024 53.3866 13.0909C55.1694 13.7632 56.8265 14.7294 58.2892 15.9503C58.4217 16.0453 58.5329 16.167 58.6151 16.3078C58.6972 16.4486 58.7472 16.6045 58.7647 16.7666C58.7467 17.037 58.6536 17.2976 58.4937 17.5164L55.8371 21.2619C55.7603 21.4161 55.6446 21.547 55.5013 21.6426C55.3579 21.7381 55.1927 21.7939 55.0208 21.8055C54.7209 21.7749 54.4358 21.6578 54.2029 21.4664C52.312 20.0531 50.0263 19.2668 47.6661 19.2187C46.2865 19.2018 44.9255 19.5421 43.7161 20.2062C42.5602 20.8422 41.6146 21.8005 40.993 22.9642C40.3457 24.2045 40.0072 25.5817 40.0072 26.9807C40.0072 28.3797 40.3457 29.7587 40.993 30.9989C41.6275 32.1443 42.5707 33.0875 43.7161 33.722C44.9195 34.4013 46.2847 34.7426 47.6661 34.7095C48.8283 34.7072 49.9808 34.5007 51.0708 34.0977C52.1754 33.672 53.2181 33.0994 54.1697 32.3953C54.4111 32.1907 54.7068 32.0594 55.0208 32.0196C55.1742 32.0351 55.3213 32.0865 55.4514 32.1692C55.5815 32.252 55.69 32.3643 55.7689 32.4967L58.3906 36.2755C58.5881 36.4543 58.7194 36.6947 58.7647 36.9571Z" fill="#3E434C"/>
<path d="M87.2975 36.9571C87.2694 37.168 87.1928 37.3703 87.0748 37.5473C86.9567 37.7243 86.7998 37.8708 86.6159 37.9779C85.1379 39.1864 83.469 40.1416 81.6784 40.804C79.838 41.4896 77.8886 41.8367 75.9247 41.8264C73.1735 41.8631 70.4579 41.2073 68.0264 39.9196C65.7499 38.6963 63.8541 36.8697 62.5452 34.6413C61.2109 32.3611 60.5276 29.7586 60.5702 27.117C60.535 24.4073 61.2283 21.7379 62.5785 19.3883C63.925 17.116 65.8675 15.2554 68.1959 14.0086C70.6787 12.6909 73.4551 12.0239 76.2655 12.0685C78.2076 12.055 80.1351 12.4024 81.9511 13.0909C83.7219 13.7666 85.368 14.7326 86.8204 15.9503C86.9608 16.0401 87.0795 16.1598 87.1679 16.3011C87.2562 16.4424 87.3116 16.601 87.3308 16.7666C87.3138 17.0432 87.2066 17.3072 87.0249 17.5164L84.3683 21.2619C84.2914 21.4161 84.1758 21.547 84.0325 21.6426C83.8891 21.7381 83.7239 21.7939 83.552 21.8055C83.2552 21.763 82.9732 21.6472 82.7341 21.4664C80.8476 20.0448 78.5591 19.2575 76.1973 19.2187C74.8285 19.2015 73.4792 19.542 72.2822 20.2062C71.1263 20.8422 70.1807 21.8005 69.5591 22.9642C68.9117 24.2045 68.5733 25.5817 68.5733 26.9807C68.5733 28.3797 68.9117 29.7587 69.5591 30.9989C70.1936 32.1443 71.1368 33.0875 72.2822 33.722C73.473 34.4017 74.8266 34.7432 76.1973 34.7095C77.3588 34.7003 78.5102 34.4941 79.602 34.0977C80.7066 33.672 81.7492 33.0994 82.7008 32.3953C82.9389 32.1853 83.2363 32.0533 83.552 32.0196C83.7027 32.044 83.8472 32.0989 83.9759 32.1809C84.1047 32.2628 84.2142 32.3706 84.3001 32.4967L86.8886 36.2755C87.0946 36.4525 87.2383 36.692 87.2975 36.9571V36.9571Z" fill="#3E434C"/>
<path d="M91.381 12.9201C91.6204 12.7254 91.9243 12.6279 92.2322 12.6475H109.665C110.448 12.6475 110.822 13.0223 110.822 13.7713V18.2998C110.835 18.4527 110.819 18.6059 110.772 18.752C110.725 18.8981 110.649 19.0343 110.549 19.151C110.294 19.3388 109.979 19.4233 109.665 19.3887H99.4506C99.2735 19.3315 99.0824 19.3315 98.9053 19.3887C98.8571 19.5556 98.8571 19.734 98.9053 19.9008V22.7602C98.853 22.9264 98.853 23.1043 98.9053 23.2706C99.083 23.3236 99.2729 23.3236 99.4506 23.2706H108.235C108.385 23.2581 108.536 23.2791 108.677 23.3321C108.818 23.3851 108.946 23.4682 109.051 23.5765C109.246 23.8158 109.343 24.1197 109.324 24.4276V28.888C109.334 29.0354 109.316 29.1833 109.269 29.3236C109.222 29.4638 109.148 29.5943 109.051 29.7059C108.944 29.8101 108.815 29.8882 108.674 29.9353C108.532 29.9825 108.383 29.9979 108.235 29.9786H99.4506C99.2735 29.9213 99.0824 29.9213 98.9053 29.9786C98.8571 30.1454 98.8571 30.3221 98.9053 30.4889V33.4847C98.8571 33.6515 98.8571 33.8282 98.9053 33.9951C98.9053 33.9951 99.1782 33.9951 99.4506 33.9951H109.665C109.978 33.9777 110.287 34.0623 110.549 34.2345C110.749 34.4842 110.847 34.7999 110.822 35.1189V39.6474C110.822 40.3624 110.448 40.7363 109.665 40.7363H92.199C92.0459 40.7537 91.8902 40.7384 91.7434 40.6914C91.5967 40.6445 91.4623 40.5667 91.3478 40.4637C91.2509 40.3521 91.1767 40.2232 91.13 40.083C91.0833 39.9428 91.0646 39.7948 91.0751 39.6474V13.2609C91.1536 13.1282 91.2572 13.0121 91.381 12.9201V12.9201Z" fill="#3E434C"/>
<path d="M116.644 32.1555C116.947 32.1749 117.235 32.295 117.462 32.4963C118.51 33.2487 119.656 33.8566 120.867 34.3018C121.956 34.7098 123.108 34.9283 124.271 34.9485C125.211 35.0101 126.15 34.8216 126.994 34.4032C127.272 34.2638 127.505 34.0494 127.668 33.7847C127.83 33.5201 127.915 33.2158 127.914 32.9053C127.917 32.7032 127.88 32.5024 127.804 32.3151C127.728 32.1279 127.615 31.9588 127.472 31.8164C127.056 31.4386 126.552 31.1679 126.007 31.0317C125.36 30.7934 124.374 30.521 123.046 30.1805C121.316 29.8031 119.645 29.1969 118.075 28.3768C116.84 27.7218 115.804 26.7452 115.078 25.5506C114.332 24.2848 113.965 22.8312 114.022 21.3629C113.952 19.6142 114.426 17.8879 115.377 16.4187C116.328 14.9496 117.71 13.8092 119.334 13.157C121.146 12.4082 123.093 12.038 125.054 12.0681C128.781 12.048 132.396 13.3368 135.268 15.7105C135.417 15.7997 135.542 15.9245 135.631 16.073C135.72 16.2214 135.77 16.3888 135.779 16.5617C135.769 16.8603 135.662 17.1483 135.473 17.3796L133.021 21.1584C132.948 21.299 132.842 21.42 132.712 21.5092C132.581 21.5983 132.43 21.6525 132.273 21.6688C131.983 21.6652 131.705 21.5568 131.49 21.3629C129.656 19.8944 127.402 19.0479 125.054 18.9457C124.257 18.8984 123.464 19.0885 122.773 19.491C122.523 19.6437 122.315 19.8578 122.172 20.1144C122.028 20.3709 121.954 20.6601 121.956 20.9539C121.951 21.3719 122.111 21.7754 122.399 22.0777C122.786 22.4414 123.252 22.7095 123.761 22.8608L126.451 23.6105C128.286 24.0111 130.06 24.6524 131.727 25.5174C132.982 26.1681 134.049 27.1287 134.826 28.3086C135.533 29.5642 135.885 30.9879 135.847 32.4282C135.89 34.2136 135.391 35.9701 134.417 37.4671C133.439 38.9829 132.028 40.1692 130.366 40.8718C128.444 41.6576 126.38 42.0403 124.305 41.9956C122.313 42.0031 120.336 41.6817 118.449 41.043C116.704 40.4265 115.072 39.5286 113.615 38.3864C113.434 38.2653 113.272 38.1163 113.138 37.9442C113.095 37.7767 113.095 37.6013 113.138 37.4338C113.168 37.0866 113.298 36.7545 113.512 36.4796L115.828 33.0749C116.1 32.462 116.372 32.1555 116.644 32.1555Z" fill="#3E434C"/>
<path d="M141.501 32.1564C141.8 32.187 142.084 32.3057 142.317 32.4972C143.368 33.2447 144.513 33.8523 145.722 34.3026C146.876 34.7341 148.099 34.9531 149.331 34.9493C150.271 35.0109 151.211 34.8224 152.055 34.404C152.333 34.2646 152.565 34.0502 152.727 33.7856C152.89 33.5209 152.976 33.2166 152.975 32.9061C152.972 32.7019 152.927 32.4997 152.845 32.3126C152.763 32.1255 152.646 31.9579 152.498 31.8172C152.091 31.4442 151.601 31.1739 151.068 31.0325C150.387 30.7942 149.399 30.5218 148.105 30.1814C146.367 29.7976 144.684 29.1919 143.1 28.3776C141.879 27.7032 140.849 26.7309 140.104 25.5514C139.385 24.2759 139.033 22.827 139.083 21.3637C139.025 19.5917 139.511 17.8455 140.478 16.3597C141.446 14.9362 142.807 13.8229 144.395 13.1578C146.205 12.4024 148.152 12.032 150.114 12.0689C153.839 12.0546 157.452 13.3427 160.328 15.7114C160.472 15.8022 160.592 15.9284 160.675 16.0771C160.759 16.2258 160.803 16.3922 160.805 16.5625C160.81 16.858 160.714 17.1472 160.532 17.3805L158.082 21.1592C158.004 21.3024 157.891 21.4242 157.754 21.5133C157.618 21.6024 157.461 21.6558 157.299 21.6696C157.01 21.6602 156.732 21.5525 156.514 21.3637C154.695 19.8915 152.452 19.044 150.114 18.9465C149.316 18.8951 148.521 19.0854 147.833 19.4918C147.582 19.6445 147.374 19.8586 147.231 20.1152C147.088 20.3717 147.015 20.6609 147.017 20.9547C147.006 21.1627 147.04 21.3711 147.116 21.5649C147.193 21.7586 147.309 21.9335 147.459 22.0786C147.845 22.4422 148.312 22.7103 148.82 22.8616C149.399 23.0659 150.319 23.3049 151.51 23.6113C153.346 24.0119 155.119 24.6532 156.787 25.5182C158.039 26.1594 159.098 27.1226 159.852 28.3094C160.586 29.5555 160.95 30.9837 160.906 32.429C160.949 34.2144 160.451 35.9709 159.477 37.4679C158.489 38.9754 157.08 40.1594 155.425 40.8726C153.492 41.6583 151.418 42.041 149.331 41.9964C147.351 42.004 145.383 41.6825 143.509 41.0438C141.764 40.4273 140.131 39.5294 138.674 38.3872C138.493 38.2661 138.331 38.1171 138.197 37.945C138.082 37.8003 138.022 37.6197 138.028 37.4346C138.042 37.0839 138.174 36.7472 138.402 36.4804L140.718 33.0757C140.945 32.4628 141.205 32.1564 141.501 32.1564Z" fill="#3E434C"/>
<path d="M165.843 19.3198C167.127 17.0631 169.028 15.22 171.325 14.0083C173.76 12.6948 176.491 12.0273 179.258 12.0682C182.031 12.0288 184.769 12.6845 187.224 13.975C189.52 15.1868 191.423 17.0298 192.707 19.2866C194.025 21.6307 194.717 24.2744 194.717 26.9638C194.717 29.6532 194.025 32.2969 192.707 34.641C191.409 36.8899 189.495 38.722 187.191 39.9193C184.725 41.214 181.974 41.8697 179.19 41.8261C176.452 41.8778 173.745 41.2325 171.325 39.9525C169.038 38.7592 167.137 36.9408 165.843 34.7092C164.501 32.3826 163.818 29.7341 163.868 27.0486C163.813 24.3408 164.496 21.6689 165.843 19.3198ZM182.867 33.7566C184.012 33.1221 184.956 32.1772 185.59 31.0318C186.251 29.7857 186.58 28.3904 186.544 26.9804C186.577 25.5598 186.248 24.1552 185.59 22.8957C184.957 21.7696 184.026 20.839 182.9 20.2059C181.74 19.5589 180.434 19.2184 179.105 19.2184C177.776 19.2184 176.468 19.5589 175.308 20.2059C174.199 20.839 173.29 21.7711 172.686 22.8957C172.028 24.1552 171.701 25.5598 171.733 26.9804C171.698 28.3904 172.025 29.7857 172.686 31.0318C173.285 32.169 174.194 33.1143 175.308 33.7566C176.469 34.3824 177.769 34.7092 179.088 34.7092C180.407 34.7092 181.706 34.3824 182.867 33.7566V33.7566Z" fill="#3E434C"/>
<path d="M199.072 12.9167C199.313 12.7249 199.616 12.6278 199.923 12.644H210.137C213.41 12.4323 216.667 13.2677 219.434 15.028C220.491 15.8816 221.326 16.9773 221.871 18.2216C222.416 19.4659 222.655 20.8227 222.566 22.1782C222.648 23.8688 222.238 25.5469 221.386 27.0093C220.533 28.4717 219.276 29.6554 217.765 30.4173L223.996 39.9499C224.143 40.1468 224.226 40.3853 224.233 40.6315C224.239 40.7201 224.219 40.8076 224.177 40.8858C224.135 40.964 224.073 41.0294 223.996 41.0737C223.796 41.2091 223.554 41.2687 223.314 41.2433H217.186C216.739 41.2601 216.295 41.1679 215.893 40.9723C215.524 40.7078 215.211 40.3719 214.973 39.9848L210.546 32.7664C210.446 32.5798 210.306 32.4167 210.137 32.2893C209.924 32.2479 209.704 32.2479 209.491 32.2893H207.177C207.086 32.2398 206.981 32.2214 206.879 32.2361C206.777 32.2507 206.682 32.2979 206.61 32.3707C206.537 32.4436 206.49 32.5381 206.475 32.6401C206.46 32.742 206.48 32.8456 206.53 32.936V40.2574C206.54 40.4048 206.522 40.5528 206.475 40.693C206.428 40.8332 206.354 40.9621 206.257 41.0737C206.137 41.1794 205.996 41.2578 205.843 41.3048C205.691 41.3517 205.53 41.3664 205.371 41.3463H199.89C199.74 41.378 199.584 41.3716 199.438 41.328C199.291 41.2845 199.159 41.2052 199.05 41.097C198.942 40.9887 198.863 40.8547 198.819 40.7079C198.776 40.5612 198.769 40.4071 198.801 40.2574V13.8709C198.773 13.7018 198.782 13.5271 198.829 13.3622C198.876 13.1974 198.959 13.0455 199.072 12.9167ZM213.476 24.9695C213.87 24.6914 214.186 24.3173 214.395 23.8822C214.603 23.4472 214.696 22.9657 214.666 22.4841C214.698 22.0166 214.606 21.5484 214.397 21.1292C214.187 20.7101 213.869 20.3546 213.476 20.1002C212.319 19.55 211.041 19.304 209.763 19.3853H207.245C207.155 19.355 207.058 19.3503 206.965 19.372C206.873 19.3937 206.788 19.4411 206.721 19.5083C206.654 19.5756 206.606 19.6601 206.585 19.7527C206.563 19.8453 206.568 19.9419 206.598 20.032V25.1058C206.552 25.2729 206.552 25.4491 206.598 25.6162C206.773 25.6846 206.966 25.6846 207.142 25.6162H209.662C210.98 25.7804 212.317 25.5557 213.509 24.9695H213.476Z" fill="#3E434C"/>
<path d="M289.057 4.06362C289.104 4.0236 289.164 4.00333 289.224 4.00673H291.231C291.874 3.96255 292.513 4.13685 293.057 4.50417C293.265 4.68229 293.429 4.91092 293.536 5.17056C293.643 5.4302 293.69 5.71331 293.672 5.99617C293.688 6.34892 293.608 6.69909 293.44 7.00424C293.273 7.3094 293.026 7.55639 292.729 7.71538L293.953 9.70447C293.982 9.74556 293.998 9.79534 294 9.8467C294.001 9.8652 293.997 9.88346 293.989 9.89978C293.98 9.91609 293.968 9.92974 293.953 9.93897C293.914 9.96723 293.866 9.97967 293.819 9.97436H292.615C292.528 9.97787 292.44 9.95864 292.361 9.91781C292.289 9.86262 292.227 9.79254 292.181 9.71176L291.311 8.20554C291.291 8.16661 291.264 8.13258 291.231 8.10598C291.189 8.09735 291.146 8.09735 291.104 8.10598H290.649C290.631 8.09567 290.611 8.09183 290.591 8.09488C290.571 8.09794 290.552 8.10778 290.538 8.12298C290.524 8.13818 290.514 8.1579 290.511 8.17918C290.508 8.20046 290.512 8.22206 290.522 8.24092V9.76865C290.524 9.79941 290.521 9.83028 290.511 9.85954C290.502 9.88879 290.488 9.91569 290.469 9.93897C290.445 9.96103 290.417 9.97739 290.387 9.98719C290.357 9.99699 290.326 10.0001 290.295 9.99587H289.218C289.188 10.0025 289.158 10.0011 289.129 9.99205C289.1 9.98296 289.074 9.96641 289.053 9.94383C289.032 9.92125 289.016 9.89327 289.007 9.86266C288.999 9.83205 288.998 9.79989 289.004 9.76865V4.26273C288.998 4.22744 289 4.19099 289.009 4.15658C289.019 4.12218 289.035 4.09049 289.057 4.06362ZM291.887 6.5786C291.964 6.52058 292.026 6.44252 292.067 6.35173C292.108 6.26095 292.126 6.16048 292.12 6.06C292.127 5.96245 292.109 5.86474 292.067 5.77728C292.026 5.68981 291.964 5.61565 291.887 5.56255C291.659 5.44775 291.408 5.39642 291.157 5.41338H290.663C290.645 5.40706 290.626 5.40608 290.608 5.41061C290.59 5.41514 290.573 5.42502 290.56 5.43905C290.546 5.45308 290.537 5.47073 290.533 5.49005C290.529 5.50936 290.53 5.52952 290.536 5.54833V6.60705C290.526 6.64191 290.526 6.67869 290.536 6.71355C290.57 6.72781 290.608 6.72781 290.642 6.71355H291.137C291.396 6.74781 291.659 6.70093 291.893 6.5786H291.887Z" fill="#3E434C"/>
<path d="M227.605 12.9151C227.722 12.8155 227.857 12.7407 228.003 12.694C228.149 12.6472 228.304 12.6292 228.457 12.6424H233.938C234.09 12.6292 234.244 12.6472 234.39 12.694C234.536 12.7407 234.672 12.8155 234.789 12.9151C234.896 13.027 234.976 13.1616 235.023 13.3091C235.07 13.4565 235.084 13.613 235.061 13.7662V40.1527C235.081 40.3007 235.065 40.4518 235.018 40.5933C234.971 40.7348 234.893 40.8639 234.789 40.9707C234.677 41.0776 234.542 41.1579 234.395 41.2051C234.247 41.2522 234.091 41.2637 233.938 41.2416H228.422C228.268 41.2637 228.112 41.2522 227.964 41.2051C227.817 41.1579 227.682 41.0776 227.57 40.9707C227.474 40.8591 227.399 40.7285 227.353 40.5883C227.306 40.4481 227.287 40.3002 227.298 40.1527V13.7662C227.289 13.6111 227.312 13.4553 227.364 13.3091C227.417 13.1628 227.5 13.0291 227.605 12.9151V12.9151Z" fill="#3E434C"/>
<path d="M241.088 12.9205C241.205 12.821 241.339 12.7462 241.485 12.6994C241.631 12.6527 241.786 12.6346 241.939 12.6479H259.371C259.526 12.6262 259.682 12.6412 259.83 12.6895C259.978 12.7377 260.113 12.8188 260.224 12.9272C260.336 13.0356 260.421 13.1681 260.474 13.3145C260.526 13.461 260.546 13.617 260.529 13.7717V18.3002C260.542 18.4531 260.524 18.6063 260.477 18.7524C260.43 18.8986 260.355 19.0347 260.256 19.1514C260.001 19.3392 259.686 19.4237 259.371 19.3891H249.157C248.992 19.3293 248.81 19.3293 248.645 19.3891C248.582 19.5536 248.582 19.7368 248.645 19.9012V22.7606C248.645 23.033 248.645 23.1688 248.645 23.271C248.811 23.3255 248.991 23.3255 249.157 23.271H257.94C258.096 23.2533 258.255 23.271 258.402 23.3242C258.55 23.3773 258.682 23.4639 258.791 23.5769C258.986 23.8162 259.083 24.1202 259.064 24.428V28.8884C259.074 29.0358 259.056 29.1838 259.009 29.324C258.962 29.4642 258.888 29.5948 258.791 29.7063C258.679 29.8133 258.545 29.8936 258.397 29.9407C258.25 29.9879 258.093 30.0011 257.94 29.979H249.157C248.992 29.9192 248.81 29.9192 248.645 29.979C248.582 30.1434 248.582 30.3249 248.645 30.4894V33.4851C248.582 33.6495 248.582 33.831 248.645 33.9955C248.645 33.9955 248.885 33.9955 249.157 33.9955H259.371C259.684 33.9781 259.994 34.0627 260.256 34.2349C260.456 34.4847 260.553 34.8003 260.529 35.1193V39.6478C260.529 40.3628 260.155 40.7367 259.371 40.7367H241.904C241.751 40.7588 241.594 40.7457 241.447 40.6985C241.299 40.6513 241.165 40.571 241.053 40.4641C240.956 40.3525 240.882 40.2236 240.835 40.0834C240.788 39.9432 240.77 39.7952 240.78 39.6478V13.2613C240.859 13.1286 240.964 13.0125 241.088 12.9205Z" fill="#3E434C"/>
<path d="M266.35 32.1555C266.653 32.1749 266.939 32.295 267.166 32.4963C268.217 33.2439 269.362 33.8515 270.571 34.3018C271.727 34.727 272.948 34.9457 274.18 34.9485C275.12 35.0101 276.061 34.8216 276.905 34.4032C277.182 34.2638 277.416 34.0494 277.578 33.7847C277.74 33.5201 277.825 33.2158 277.824 32.9053C277.817 32.4998 277.658 32.1121 277.38 31.8164C276.964 31.4386 276.462 31.1679 275.917 31.0317C275.236 30.7934 274.249 30.521 272.955 30.1805C271.225 29.8031 269.553 29.1969 267.984 28.3768C266.746 27.7133 265.701 26.7393 264.953 25.5506C264.235 24.2751 263.882 22.8262 263.933 21.3629C263.863 19.6142 264.335 17.8879 265.286 16.4187C266.237 14.9496 267.62 13.8092 269.244 13.157C271.057 12.4082 273.002 12.038 274.963 12.0681C278.688 12.0538 282.302 13.3419 285.177 15.7105C285.326 15.7997 285.45 15.9245 285.54 16.073C285.629 16.2214 285.68 16.3888 285.689 16.5617C285.679 16.8603 285.571 17.1483 285.382 17.3796L282.931 21.1584C282.853 21.3016 282.74 21.4234 282.604 21.5125C282.467 21.6016 282.311 21.655 282.148 21.6688C281.869 21.6632 281.601 21.5545 281.398 21.3629C279.564 19.8944 277.31 19.0479 274.963 18.9457C274.165 18.8942 273.371 19.0846 272.682 19.491C272.431 19.6437 272.225 19.8578 272.082 20.1144C271.939 20.3709 271.864 20.6601 271.866 20.9539C271.855 21.1619 271.889 21.3703 271.966 21.564C272.042 21.7578 272.159 21.9327 272.308 22.0777C272.695 22.4414 273.161 22.7095 273.67 22.8608C274.248 23.065 275.168 23.3041 276.359 23.6105C278.195 24.0111 279.969 24.6524 281.636 25.5174C282.888 26.1586 283.947 27.1218 284.702 28.3086C285.435 29.5547 285.801 30.9829 285.757 32.4282C285.8 34.2136 285.3 35.9701 284.326 37.4671C283.338 38.9746 281.93 40.1586 280.275 40.8718C278.341 41.6575 276.267 42.0401 274.18 41.9956C272.2 42 270.233 41.6786 268.358 41.043C266.613 40.4265 264.98 39.5286 263.524 38.3864C263.342 38.2653 263.181 38.1163 263.047 37.9442C262.945 37.7923 262.887 37.6162 262.877 37.4338C262.907 37.0866 263.037 36.7545 263.251 36.4796L265.567 33.0749C265.794 32.462 266.055 32.1555 266.35 32.1555Z" fill="#3E434C"/>
<circle cx="291" cy="7" r="5.75" stroke="#3E434C" stroke-width="1.5"/>
</svg>
