<svg width="25" height="25" viewBox="0 0 25 25" fill="none" xmlns="http://www.w3.org/2000/svg">
<path fill-rule="evenodd" clip-rule="evenodd" d="M3.25556 3.25489C2.08398 4.42646 2.08398 6.31208 2.08398 10.0833V14.9166C2.08398 18.6879 2.08398 20.5735 3.25556 21.7451C4.42713 22.9167 6.31275 22.9167 10.084 22.9167H14.9173C18.6886 22.9167 20.5742 22.9167 21.7457 21.7451C22.9173 20.5735 22.9173 18.6879 22.9173 14.9166V10.0833C22.9173 7.20507 22.9173 5.42518 22.3965 4.2228V17.7083C21.396 17.7083 20.4366 17.3109 19.7291 16.6035L18.9461 15.8205C18.1389 15.0133 17.7353 14.6097 17.2683 14.4625C16.8771 14.3393 16.4575 14.3393 16.0663 14.4625C15.5993 14.6097 15.1957 15.0133 14.3885 15.8205L14.2706 15.9383C13.6208 16.5882 13.2958 16.9131 12.9454 16.951C12.7465 16.9725 12.5457 16.9338 12.369 16.84C12.0577 16.6747 11.8767 16.2523 11.5146 15.4076L11.459 15.2778C10.6327 13.3498 10.2196 12.3858 9.47032 12.0736C9.21766 11.9683 8.94608 11.916 8.67239 11.9199C7.86077 11.9315 7.11916 12.6731 5.63595 14.1563L3.64648 16.1458V2.92542C3.50753 3.0234 3.37767 3.13278 3.25556 3.25489Z" fill="#4F4F4F"/>
<path d="M3.08398 10.0833C3.08398 8.16943 3.08611 6.83461 3.22151 5.82747C3.35305 4.84911 3.59365 4.33101 3.96266 3.96199C4.33168 3.59298 4.84978 3.35238 5.82815 3.22084C6.83528 3.08544 8.1701 3.08331 10.084 3.08331H14.9173C16.8312 3.08331 18.166 3.08544 19.1732 3.22084C20.1515 3.35238 20.6696 3.59298 21.0386 3.96199C21.4077 4.33101 21.6483 4.84911 21.7798 5.82747C21.9152 6.83461 21.9173 8.16943 21.9173 10.0833V14.9166C21.9173 16.8305 21.9152 18.1653 21.7798 19.1725C21.6483 20.1509 21.4077 20.6689 21.0386 21.038C20.6696 21.407 20.1515 21.6476 19.1732 21.7791C18.166 21.9145 16.8312 21.9166 14.9173 21.9166H10.084C8.1701 21.9166 6.83528 21.9145 5.82815 21.7791C4.84978 21.6476 4.33168 21.407 3.96266 21.038C3.59365 20.6689 3.35305 20.1509 3.22151 19.1725C3.08611 18.1654 3.08398 16.8305 3.08398 14.9166V10.0833Z" stroke="#4F4F4F" stroke-width="2"/>
<ellipse cx="15.6243" cy="9.37502" rx="2.08333" ry="2.08333" fill="#4F4F4F"/>
</svg>
