<svg width="35" height="35" viewBox="0 0 35 35" fill="none" xmlns="http://www.w3.org/2000/svg">
<path d="M27.7083 20.4167L27.0012 21.1238L27.7083 21.8309L28.4154 21.1238L27.7083 20.4167ZM21.1679 15.2905L27.0012 21.1238L28.4154 19.7096L22.5821 13.8762L21.1679 15.2905ZM28.4154 21.1238L34.2488 15.2905L32.8346 13.8762L27.0012 19.7096L28.4154 21.1238Z" fill="#4F4F4F"/>
<path d="M22.6035 26.3407C20.6574 27.4643 18.3949 27.9143 16.1669 27.621C13.9389 27.3277 11.87 26.3074 10.281 24.7184C8.69196 23.1294 7.67167 21.0605 7.37835 18.8325C7.08503 16.6045 7.53507 14.342 8.65867 12.3959C9.78228 10.4497 11.5166 8.92872 13.5928 8.06875C15.6689 7.20878 17.9708 7.05791 20.1415 7.63953C22.3121 8.22115 24.2302 9.50275 25.5982 11.2856C26.9662 13.0684 27.7077 15.2528 27.7077 17.5" stroke="#4F4F4F" stroke-width="2" stroke-linecap="round"/>
</svg>
