<svg width="35" height="35" viewBox="0 0 35 35" fill="none" xmlns="http://www.w3.org/2000/svg">
<path d="M7.29167 20.4167L7.99877 21.1238L7.29167 21.8309L6.58456 21.1238L7.29167 20.4167ZM13.8321 15.2905L7.99877 21.1238L6.58456 19.7096L12.4179 13.8762L13.8321 15.2905ZM6.58456 21.1238L0.75123 15.2905L2.16544 13.8762L7.99878 19.7096L6.58456 21.1238Z" fill="#4F4F4F"/>
<path d="M12.3965 26.3407C14.3426 27.4643 16.6051 27.9143 18.8331 27.621C21.0611 27.3277 23.13 26.3074 24.719 24.7184C26.308 23.1294 27.3283 21.0605 27.6217 18.8325C27.915 16.6045 27.4649 14.342 26.3413 12.3959C25.2177 10.4497 23.4834 8.92872 21.4072 8.06875C19.3311 7.20878 17.0292 7.05791 14.8585 7.63953C12.6879 8.22115 10.7698 9.50275 9.40183 11.2856C8.03382 13.0684 7.29232 15.2528 7.29232 17.5" stroke="#4F4F4F" stroke-width="2" stroke-linecap="round"/>
</svg>
