<svg width="25" height="15" viewBox="0 0 25 15" fill="none" xmlns="http://www.w3.org/2000/svg">
<path fillRule="evenodd" clip-rule="evenodd" d="M23.4677 0.989767C23.6459 0.431436 23.4677 0.0253783 22.6786 0.0253783H20.057C19.3952 0.0253783 19.0898 0.38068 18.9116 0.76136C18.9116 0.76136 17.5626 4.00983 15.6791 6.11626C15.0682 6.72535 14.7882 6.92838 14.4573 6.92838C14.2792 6.92838 14.0501 6.72535 14.0501 6.16702V0.964389C14.0501 0.304543 13.8464 0 13.2865 0H9.16309C8.75584 0 8.50131 0.304543 8.50131 0.609087C8.50131 1.24355 9.44307 1.39583 9.54489 3.17234V7.02989C9.54489 7.86739 9.39217 8.01966 9.06128 8.01966C8.17042 8.01966 6.00691 4.74581 4.70881 1.01515C4.45428 0.279165 4.19975 0 3.53797 0H0.890856C0.127265 0 0 0.3553 0 0.73598C0 1.4212 0.890857 4.87271 4.14884 9.44087C6.31235 12.5624 9.39217 14.2374 12.1665 14.2374C13.8464 14.2374 14.0501 13.8568 14.0501 13.2223V10.8621C14.0501 10.1007 14.2028 9.97382 14.7373 9.97382C15.1191 9.97382 15.8063 10.1769 17.359 11.6742C19.1407 13.4507 19.4461 14.2628 20.4388 14.2628H23.0604C23.824 14.2628 24.1804 13.8821 23.9768 13.1462C23.7477 12.4102 22.8823 11.3443 21.7623 10.0753C21.1515 9.36473 20.2352 8.57799 19.9552 8.19731C19.5734 7.68974 19.6752 7.48671 19.9552 7.02989C19.9297 7.02989 23.1368 2.51249 23.4677 0.989767Z" fill="white"/>
</svg>
